<?xml version="1.0" encoding="utf-8"?>
<!-- Generator: Adobe Illustrator 16.0.0, SVG Export Plug-In . SVG Version: 6.00 Build 0)  -->
<!DOCTYPE svg PUBLIC "-//W3C//DTD SVG 1.1//EN" "http://www.w3.org/Graphics/SVG/1.1/DTD/svg11.dtd">
<svg version="1.1" id="Layer_1" xmlns:sketch="http://www.bohemiancoding.com/sketch/ns"
	 xmlns="http://www.w3.org/2000/svg" xmlns:xlink="http://www.w3.org/1999/xlink" x="0px" y="0px" width="30px" height="30px"
	 viewBox="0 0 30 30" enable-background="new 0 0 30 30" xml:space="preserve">
<path id="Rectangle-1410" sketch:type="MSShapeGroup" fill="#919191" d="M3,0h24c1.656,0,3,1.343,3,3v24c0,1.656-1.344,3-3,3H3
	c-1.657,0-3-1.344-3-3V3C0,1.343,1.343,0,3,0z"/>
<g id="Clip-2">
</g>
<defs>
	<filter id="Adobe_OpacityMaskFilter" filterUnits="userSpaceOnUse" x="9.128" y="4.116" width="11.265" height="6.37">
		<feColorMatrix  type="matrix" values="1 0 0 0 0  0 1 0 0 0  0 0 1 0 0  0 0 0 1 0"/>
	</filter>
</defs>
<mask maskUnits="userSpaceOnUse" x="9.128" y="4.116" width="11.265" height="6.37" id="mask-2">
	<g filter="url(#Adobe_OpacityMaskFilter)">
		<path id="path-1" fill="#FFFFFF" d="M6,4.116h17.518V25H6V4.116z"/>
	</g>
</mask>
<path id="Fill-1" sketch:type="MSShapeGroup" mask="url(#mask-2)" fill="#FFFFFF" d="M17.441,8.616c0.297,0,0.532-0.236,0.533-0.528
	c0-0.293-0.24-0.537-0.535-0.539c-0.291-0.001-0.531,0.241-0.533,0.538C16.903,8.387,17.14,8.618,17.441,8.616L17.441,8.616z
	 M12.076,8.616c0.3,0.001,0.545-0.236,0.541-0.529c0-0.293-0.247-0.538-0.535-0.538c-0.297,0.001-0.538,0.246-0.538,0.539
	C11.543,8.38,11.783,8.616,12.076,8.616L12.076,8.616z M18.354,4.116c0.082,0.087,0.083,0.103,0.022,0.21
	c-0.3,0.521-0.596,1.042-0.898,1.563c-0.034,0.065-0.023,0.086,0.04,0.116c0.988,0.513,1.773,1.243,2.307,2.23
	c0.363,0.674,0.555,1.396,0.568,2.165c0.001,0.072-0.021,0.084-0.086,0.084c-3.701,0-7.398,0-11.097,0.001
	c-0.075,0-0.082-0.023-0.082-0.087c0.026-1.115,0.404-2.097,1.096-2.958C10.708,6.834,11.307,6.361,12,6.008
	c0.063-0.033,0.076-0.055,0.039-0.124c-0.302-0.519-0.6-1.041-0.896-1.564c-0.061-0.102-0.053-0.133,0.035-0.204h0.071
	c0.038,0.03,0.065,0.072,0.088,0.116c0.301,0.522,0.604,1.045,0.903,1.572c0.03,0.055,0.053,0.068,0.117,0.043
	c0.727-0.322,1.49-0.479,2.279-0.493c0.877-0.021,1.721,0.141,2.528,0.491c0.058,0.026,0.085,0.016,0.116-0.039
	c0.297-0.523,0.6-1.04,0.895-1.56c0.027-0.043,0.058-0.087,0.094-0.13H18.354z"/>
<path id="Fill-4" sketch:type="MSShapeGroup" fill="#FFFFFF" d="M6,12.128c0.032-0.065,0.026-0.141,0.049-0.207
	c0.153-0.487,0.447-0.831,0.959-0.936c0.47-0.093,0.926,0.125,1.198,0.554c0.14,0.219,0.218,0.461,0.218,0.725
	c0.003,1.733,0.003,3.462,0,5.2c-0.004,0.553-0.356,1.054-0.845,1.231c-0.457,0.164-0.968,0.002-1.283-0.402
	c-0.156-0.201-0.25-0.432-0.283-0.686C6.012,17.592,6.004,17.577,6,17.56V12.128z"/>
<path id="Fill-6" sketch:type="MSShapeGroup" fill="#FFFFFF" d="M14.759,11.143c1.86,0,3.717,0,5.578-0.001
	c0.079,0,0.103,0.016,0.103,0.102c-0.003,2.816-0.008,5.627,0,8.442c0,0.429-0.45,0.97-0.858,1.03
	c-0.044,0.008-0.088,0.008-0.132,0.008c-0.393,0-0.79,0.003-1.186,0c-0.074,0-0.1,0.014-0.098,0.1c0.002,0.934,0,1.873,0,2.808
	c0.002,0.359-0.101,0.685-0.34,0.956c-0.529,0.605-1.426,0.537-1.863-0.145c-0.158-0.244-0.229-0.514-0.227-0.805
	c0.002-0.937-0.002-1.875,0.004-2.81c0-0.083-0.02-0.104-0.103-0.104c-0.59,0.003-1.178,0-1.767,0c-0.068,0-0.089,0.018-0.089,0.09
	c0.002,0.932,0,1.861,0.002,2.793c0,0.384-0.105,0.729-0.369,1.015c-0.543,0.587-1.445,0.478-1.859-0.23
	c-0.147-0.249-0.199-0.522-0.198-0.81c0-0.922-0.001-1.84,0-2.758c0-0.082-0.02-0.1-0.1-0.1c-0.365,0.004-0.728-0.009-1.092,0.004
	c-0.366,0.017-0.625-0.15-0.845-0.414c-0.168-0.201-0.247-0.431-0.247-0.699c0.006-2.787,0.006-5.577,0.003-8.365
	c0-0.086,0.021-0.107,0.108-0.107C11.044,11.146,12.902,11.143,14.759,11.143"/>
<g id="Clip-9">
</g>
<defs>
	<filter id="Adobe_OpacityMaskFilter_1_" filterUnits="userSpaceOnUse" x="21.09" y="10.963" width="2.43" height="7.792">
		<feColorMatrix  type="matrix" values="1 0 0 0 0  0 1 0 0 0  0 0 1 0 0  0 0 0 1 0"/>
	</filter>
</defs>
<mask maskUnits="userSpaceOnUse" x="21.09" y="10.963" width="2.43" height="7.792" id="mask-4">
	<g filter="url(#Adobe_OpacityMaskFilter_1_)">
		<path id="path-3" fill="#FFFFFF" d="M6,4.116h17.518V25H6"/>
	</g>
</mask>
<path id="Fill-8" sketch:type="MSShapeGroup" mask="url(#mask-4)" fill="#FFFFFF" d="M23.52,14.859c0,0.84-0.002,1.678,0,2.514
	c0.001,0.318-0.074,0.607-0.258,0.863c-0.49,0.696-1.439,0.69-1.922-0.013c-0.16-0.233-0.247-0.495-0.247-0.778
	c-0.003-1.723-0.006-3.447,0.003-5.171c0.002-0.456,0.191-0.838,0.571-1.105c0.565-0.4,1.324-0.2,1.675,0.438
	c0.128,0.23,0.179,0.481,0.178,0.745C23.518,13.188,23.52,14.024,23.52,14.859"/>
</svg>
