<?xml version="1.0" encoding="utf-8"?>
<!-- Generator: Adobe Illustrator 16.0.0, SVG Export Plug-In . SVG Version: 6.00 Build 0)  -->
<!DOCTYPE svg PUBLIC "-//W3C//DTD SVG 1.1//EN" "http://www.w3.org/Graphics/SVG/1.1/DTD/svg11.dtd">
<svg version="1.1" id="Layer_1" xmlns:sketch="http://www.bohemiancoding.com/sketch/ns"
	 xmlns="http://www.w3.org/2000/svg" xmlns:xlink="http://www.w3.org/1999/xlink" x="0px" y="0px" width="31px" height="30px"
	 viewBox="0 0 31 30" enable-background="new 0 0 31 30" xml:space="preserve">
<path id="Rectangle-1410-Copy" sketch:type="MSShapeGroup" fill="#919191" d="M3,0h25c1.656,0,3,1.343,3,3v24c0,1.656-1.344,3-3,3H3
	c-1.657,0-3-1.344-3-3V3C0,1.343,1.343,0,3,0z"/>
<defs>
	<filter id="Adobe_OpacityMaskFilter" filterUnits="userSpaceOnUse" x="7" y="9.317" width="16.485" height="14.683">
		<feColorMatrix  type="matrix" values="1 0 0 0 0  0 1 0 0 0  0 0 1 0 0  0 0 0 1 0"/>
	</filter>
</defs>
<mask maskUnits="userSpaceOnUse" x="7" y="9.317" width="16.485" height="14.683" id="mask-2">
	<g filter="url(#Adobe_OpacityMaskFilter)">
		<path id="path-1" fill="#FFFFFF" d="M7,5.029h16.484V24H7"/>
	</g>
</mask>
<path id="Fill-1" sketch:type="MSShapeGroup" mask="url(#mask-2)" fill="#FFFFFF" d="M12.449,24
	c-0.119-0.002-0.237-0.002-0.354-0.002c-0.28-0.024-0.547-0.104-0.8-0.219c-0.347-0.158-0.652-0.379-0.93-0.632
	c-0.4-0.362-0.741-0.768-1.045-1.204c-0.747-1.076-1.351-2.217-1.775-3.449c-0.195-0.578-0.343-1.168-0.436-1.768
	c-0.096-0.616-0.128-1.234-0.098-1.855c0.03-0.698,0.137-1.382,0.358-2.046c0.283-0.843,0.721-1.593,1.37-2.225
	c0.499-0.486,1.081-0.846,1.77-1.037c0.51-0.144,1.031-0.183,1.558-0.143c0.593,0.041,1.165,0.173,1.736,0.332
	c0.379,0.104,0.759,0.2,1.145,0.283c0.375,0.081,0.74,0.06,1.106-0.025c0.399-0.091,0.787-0.215,1.173-0.338
	c0.417-0.136,0.841-0.244,1.276-0.306c0.391-0.058,0.787-0.064,1.18-0.026c0.613,0.062,1.188,0.236,1.723,0.531
	c0.405,0.224,0.757,0.518,1.081,0.842c0.154,0.149,0.3,0.311,0.438,0.476c-0.016,0.033-0.045,0.047-0.07,0.07
	c-0.359,0.299-0.703,0.607-1.011,0.957c-0.476,0.539-0.8,1.15-0.949,1.844c-0.081,0.367-0.103,0.737-0.081,1.11
	c0.033,0.512,0.142,1.01,0.352,1.479c0.3,0.662,0.73,1.235,1.309,1.697c0.283,0.232,0.605,0.403,0.963,0.52
	c0.056,0.018,0.059,0.018,0.037,0.07c-0.182,0.57-0.428,1.107-0.715,1.631c-0.338,0.619-0.716,1.215-1.162,1.771
	c-0.289,0.361-0.602,0.701-0.971,0.992c-0.271,0.211-0.565,0.391-0.893,0.511c-0.374,0.137-0.757,0.163-1.148,0.101
	c-0.465-0.073-0.91-0.215-1.353-0.367c-0.379-0.13-0.769-0.232-1.167-0.296c-0.458-0.071-0.91-0.038-1.355,0.071
	c-0.321,0.076-0.629,0.182-0.933,0.3c-0.351,0.142-0.707,0.26-1.083,0.323C12.614,23.984,12.532,23.998,12.449,24"/>
<defs>
	<filter id="Adobe_OpacityMaskFilter_1_" filterUnits="userSpaceOnUse" x="15.093" y="5.029" width="3.95" height="4.607">
		<feColorMatrix  type="matrix" values="1 0 0 0 0  0 1 0 0 0  0 0 1 0 0  0 0 0 1 0"/>
	</filter>
</defs>
<mask maskUnits="userSpaceOnUse" x="15.093" y="5.029" width="3.95" height="4.607" id="mask-4">
	<g filter="url(#Adobe_OpacityMaskFilter_1_)">
		<path id="path-3" fill="#FFFFFF" d="M7,5.029h16.484V24H7"/>
	</g>
</mask>
<path id="Fill-4" sketch:type="MSShapeGroup" mask="url(#mask-4)" fill="#FFFFFF" d="M19.041,5.599
	c-0.068,0.921-0.378,1.754-0.957,2.491c-0.313,0.4-0.682,0.75-1.109,1.037c-0.345,0.229-0.723,0.372-1.139,0.425
	c-0.208,0.03-0.415,0.056-0.625,0.078c-0.022,0.001-0.045,0.001-0.065,0.005c-0.04,0.005-0.056-0.004-0.052-0.046
	c0.006-0.051,0.003-0.102,0.003-0.151c0.036-0.713,0.185-1.398,0.501-2.046C15.884,6.8,16.28,6.288,16.835,5.9
	c0.323-0.224,0.67-0.403,1.038-0.548c0.332-0.131,0.68-0.234,1.027-0.314c0.072-0.016,0.072-0.016,0.092,0.054
	C19.027,5.226,19.049,5.418,19.041,5.599"/>
</svg>
